:SAMPLES-PER-SECOND 30
:FULLY-SPECIFIED
:DEGREES
79
root  -44.449 39.9061 -11.7648 15.2665 -44.6189 0.057785
RightUpLeg  -24.171 -36.2287 -6.6627
RightLeg  50.4187 -10.6726 -13.8348
RightFoot  -5.59794 -0.334722 5.92091
RightToes  -1.74624e-010 0 -3.6325e-017
Spine  37.9484 3.8151 17.3847
Spine1  2.56882 15.7157 -27.9197
HEad  -50.9951 -27.1951 35.9057
LeftShoulder1  9.66309 -17.0128 -40.7855
LeftArm  45.8571 -22.2923 -59.7064
LeftForeArm  50.4829 -33.2128 -4.5657
LeftHand  -0.244104 0.0205437 5.32207
RightShoulder  5.75267 21.5702 16.2584
RightArm  54.5117 41.1413 103.688
RightForeArm  79.0783 51.6853 8.71789
RightHand  1.69224 13.4635 9.31693
LeftUpLeg  -35.0308 -1.71017 -3.52856
LeftLeg  11.4186 -14.9917 -4.36332
LeftFoot  12.2279 -1.4542 6.60284
LeftToes  8.00323e-011 -1.37366e-010 4.43692e-012
80
root  -45.4443 39.8438 -12.1705 14.9492 -38.9479 1.41429
RightUpLeg  -27.4148 -34.5896 -8.48715
RightLeg  45.7088 -12.6266 -13.8232
RightFoot  -7.90619 -0.216807 5.58247
RightToes  -1.74624e-010 0 -3.6325e-017
Spine  38.5703 2.97056 17.0387
Spine1  5.19834 14.6144 -23.7234
HEad  -51.6463 -29.5445 36.3346
LeftShoulder1  9.34212 -16.1044 -41.3029
LeftArm  27.031 -20.7934 -49.2958
LeftForeArm  44.902 -36.9897 -5.76475
LeftHand  -0.244104 0.0205437 5.32207
RightShoulder  7.29495 18.7007 26.7326
RightArm  38.0812 34.1032 82.7938
RightForeArm  76.5574 56.868 11.094
RightHand  1.07466 15.0692 5.9196
LeftUpLeg  -35.8383 -4.86313 -3.19768
LeftLeg  12.7149 -16.9664 -4.46428
LeftFoot  11.3282 -1.14978 5.38044
LeftToes  8.00323e-011 -1.37366e-010 4.43692e-012
81
root  -46.5081 39.7619 -12.6504 14.6693 -34.5902 2.02522
RightUpLeg  -28.924 -29.8585 -10.7987
RightLeg  37.1288 -10.8652 -9.10742
RightFoot  -8.36882 -0.242246 7.00151
RightToes  -1.74624e-010 0 -3.6325e-017
Spine  40.654 2.38107 15.2372
Spine1  5.80285 12.7762 -18.7957
HEad  -51.0305 -29.9346 34.7903
LeftShoulder1  8.78752 -14.7917 -41.6819
LeftArm  6.34545 -17.0644 -39.0353
LeftForeArm  34.2128 -38.1561 -6.68345
LeftHand  -0.244104 0.0205437 5.32207
RightShoulder  8.34814 16.3629 35.9658
RightArm  21.4153 30.0893 62.3832
RightForeArm  65.6114 61.9118 14.8414
RightHand  -0.790396 14.7887 -5.16227
LeftUpLeg  -36.8143 -8.63786 -1.35042
LeftLeg  14.8447 -16.2902 -4.37169
LeftFoot  9.6146 -0.767702 3.82858
LeftToes  8.00323e-011 -1.37366e-010 4.43692e-012
82
root  -47.7294 39.6179 -13.1555 14.5757 -30.8823 2.41701
RightUpLeg  -29.2682 -23.8272 -13.1767
RightLeg  25.7819 -6.28167 -3.50289
RightFoot  -4.53212 -0.640261 9.91682
RightToes  -1.74624e-010 0 -3.6325e-017
Spine  42.9288 2.72417 12.0198
Spine1  5.6176 10.8362 -12.5645
HEad  -49.9615 -29.2441 32.0285
LeftShoulder1  8.52384 -13.7649 -42.9081
LeftArm  -12.8817 -11.6256 -29.5276
LeftForeArm  24.6996 -36.9105 -6.9183
LeftHand  -0.244104 0.0205437 5.32207
RightShoulder  8.66514 14.6744 41.406
RightArm  2.80081 28.4451 43.8924
RightForeArm  59.4731 65.9265 18.7974
RightHand  -0.394651 10.6602 -3.11965
LeftUpLeg  -38.283 -12.0643 1.37646
LeftLeg  17.4791 -15.0892 -4.81224
LeftFoot  7.51381 -0.412225 2.20363
LeftToes  8.00323e-011 -1.37366e-010 4.43692e-012
83
root  -49.044 39.3351 -13.6595 14.6424 -26.6111 3.24307
RightUpLeg  -29.5147 -19.0804 -15.4621
RightLeg  18.233 -3.23817 -1.34239
RightFoot  0.721554 -1.34827 12.8797
RightToes  -1.74624e-010 0 -3.6325e-017
Spine  44.2003 3.14931 9.23461
Spine1  5.78522 9.16841 -7.24221
HEad  -49.8753 -29.6402 30.657
LeftShoulder1  8.55736 -13.599 -43.5339
LeftArm  -26.2773 -6.06155 -21.4978
LeftForeArm  18.6742 -33.2283 -6.30355
LeftHand  -0.244104 0.0205437 5.32207
RightShoulder  8.08258 13.0473 42.4999
RightArm  -17.3641 27.6959 29.4838
RightForeArm  61.0509 66.285 19.1251
RightHand  0.391333 9.5844 2.5404
LeftUpLeg  -40.6407 -14.8626 3.75244
LeftLeg  20.7443 -15.6301 -6.14267
LeftFoot  5.29329 -0.124806 0.634339
LeftToes  8.00323e-011 -1.37366e-010 4.43692e-012
84
root  -50.2153 39.0778 -14.0876 15.063 -22.3583 3.51935
RightUpLeg  -31.3616 -18.7042 -15.2122
RightLeg  19.8775 -2.2963 -1.11986
RightFoot  1.69979 -1.45518 12.7448
RightToes  -1.74624e-010 0 -3.6325e-017
Spine  44.9134 2.64403 9.1905
Spine1  6.15108 7.8687 -4.67394
HEad  -50.9427 -31.1946 31.5557
LeftShoulder1  8.45444 -13.8965 -42.1971
LeftArm  -33.1297 -1.09895 -15.6009
LeftForeArm  15.0854 -28.0317 -5.24815
LeftHand  -0.244104 0.0205437 5.32207
RightShoulder  7.24131 11.6781 41.4661
RightArm  -36.4454 25.3647 19.4969
RightForeArm  62.4936 63.2867 16.1371
RightHand  0.263105 7.47831 1.97035
LeftUpLeg  -42.9773 -17.1617 6.18374
LeftLeg  23.4164 -16.3323 -7.28567
LeftFoot  3.48613 0.0776019 -0.754541
LeftToes  8.00323e-011 -1.37366e-010 4.43692e-012
85
root  -51.2141 38.9265 -14.4536 15.5037 -19.418 3.1416
RightUpLeg  -33.8136 -21.1773 -12.5158
RightLeg  26.1878 -2.33619 -1.49526
RightFoot  -1.20981 -0.94145 10.478
RightToes  -1.74624e-010 0 -3.6325e-017
Spine  45.9779 1.87335 10.1772
Spine1  6.2061 7.17013 -4.07627
HEad  -52.4163 -32.4345 33.1319
LeftShoulder1  8.18402 -14.149 -40.1054
LeftArm  -35.5064 3.8195 -11.7864
LeftForeArm  12.6234 -23.3697 -4.26028
LeftHand  -0.244104 0.0205437 5.32207
RightShoulder  6.73223 10.9042 40.5596
RightArm  -51.1769 20.4814 11.6414
RightForeArm  62.7552 61.1573 14.4668
RightHand  0.187132 5.11104 1.76247
LeftUpLeg  -44.5134 -18.3358 8.39518
LeftLeg  25.149 -15.4224 -7.44215
LeftFoot  2.23984 0.18212 -1.63799
LeftToes  8.00323e-011 -1.37366e-010 4.43692e-012
86
root  -52.1103 38.9271 -14.761 16.1 -18.3793 2.6107
RightUpLeg  -35.2051 -21.9841 -9.88826
RightLeg  29.2291 -3.21138 -2.17407
RightFoot  -3.53538 -0.620464 8.76735
RightToes  -1.74624e-010 0 -3.6325e-017
Spine  47.2968 1.92607 9.82429
Spine1  5.9128 6.93702 -3.31634
HEad  -53.5167 -32.5274 33.868
LeftShoulder1  8.01218 -14.1917 -39.0779
LeftArm  -34.2406 8.99204 -9.58566
LeftForeArm  9.35177 -19.6954 -3.00623
LeftHand  -0.244104 0.0205437 5.32207
RightShoulder  6.44757 10.4148 40.176
RightArm  -59.6189 14.7245 4.57398
RightForeArm  61.0282 61.8503 15.1476
RightHand  0.19566 7.36694 1.43318
LeftUpLeg  -44.9019 -17.3299 9.54076
LeftLeg  25.4482 -13.9505 -6.81747
LeftFoot  1.85155 0.224124 -2.03377
LeftToes  8.00323e-011 -1.37366e-010 4.43692e-012
87
root  -52.8712 39.0944 -14.98 17.1606 -18.6431 2.20285
RightUpLeg  -36.2246 -21.4171 -7.78367
RightLeg  28.4996 -3.15978 -2.09821
RightFoot  -3.55845 -0.545716 7.67197
RightToes  -1.74624e-010 0 -3.6325e-017
Spine  47.9097 2.54786 8.3527
Spine1  5.53534 6.56969 -1.99525
HEad  -53.7425 -31.7067 33.7896
LeftShoulder1  7.93605 -14.0835 -38.9307
LeftArm  -29.5154 13.9158 -8.98703
LeftForeArm  4.13071 -15.8629 -1.47795
LeftHand  -0.244104 0.0205437 5.32207
RightShoulder  6.09055 9.80194 39.6524
RightArm  -62.4197 10.2117 -0.593477
RightForeArm  58.3472 64.6129 17.7284
RightHand  0.104306 7.3905 0.562332
LeftUpLeg  -44.518 -14.9595 9.93973
LeftLeg  23.9408 -13.0049 -5.9249
LeftFoot  2.40136 0.277717 -2.42284
LeftToes  8.00323e-011 -1.37366e-010 4.43692e-012
88
root  -53.4674 39.3137 -15.0966 18.3951 -19.1824 2.03572
RightUpLeg  -37.3755 -21.6209 -5.8332
RightLeg  27.2973 -2.19988 -1.46566
RightFoot  -2.74708 -0.505743 6.47149
RightToes  -1.74624e-010 0 -3.6325e-017
Spine  47.5182 2.60291 6.99634
Spine1  5.27768 5.739 -1.43789
HEad  -52.9923 -30.6597 33.251
LeftShoulder1  7.81586 -13.9482 -38.6075
LeftArm  -24.3024 17.8708 -9.9679
LeftForeArm  -0.166413 -11.4097 -0.647145
LeftHand  -0.244104 0.0205437 5.32207
RightShoulder  5.69637 9.20151 38.7586
RightArm  -61.5937 7.20103 -3.05728
RightForeArm  58.4217 68.3519 21.9256
RightHand  0.106194 3.82642 1.09245
LeftUpLeg  -43.9855 -13.2891 10.3576
LeftLeg  21.5345 -11.9944 -4.85407
LeftFoot  3.21484 0.37278 -3.07164
LeftToes  8.00323e-011 -1.37366e-010 4.43692e-012
